PathFileType	4	(X/Y/Z)	Walk10.trc
DataRate	CameraRate	NumFrames	NumMarkers	Units	OrigDataRate	OrigDataStartFrame	OrigNumFrames
200.000000	200.000000	4	68	mm	200.000000	740	783
Frame#	Times		LToe		LowerBodyModelVer		LBHD		LWRR		LElbow		RMT1		LACR1		RMT5		RToe		LUA1		RTB2		LWRU		RCAL		LCAR		RTB3		RTB4		RFA1		LMT5		RWRU		RMMAL		C7		LASI		RLFC		LTB2		LPSI		LLFC		LMMAL		RElbowM		LTH3		RASI		RPSI		LHJC		MidPelvis		OPelvis		PELOrigin		RHJC		SACR		XPelvis		YPelvis		ZPelvis		LCAL		RElbow		LFHD		RTH3		RCAR		STRN		RBHD		LMT1		RMFC		RKJC		LLMAL		RWRR		RLMAL		RUA1		RFHD		RBack		LMFC		LKJC		LTH4		RTH1		LTH1		LTH2		LTB1		LTB4		LTB3		RTH4		RTB1		RTH2
			X1	Y1	Z1	X2	Y2	Z2	X3	Y3	Z3	X4	Y4	Z4	X5	Y5	Z5	X6	Y6	Z6	X7	Y7	Z7	X8	Y8	Z8	X9	Y9	Z9	X10	Y10	Z10	X11	Y11	Z11	X12	Y12	Z12	X13	Y13	Z13	X14	Y14	Z14	X15	Y15	Z15	X16	Y16	Z16	X17	Y17	Z17	X18	Y18	Z18	X19	Y19	Z19	X20	Y20	Z20	X21	Y21	Z21	X22	Y22	Z22	X23	Y23	Z23	X24	Y24	Z24	X25	Y25	Z25	X26	Y26	Z26	X27	Y27	Z27	X28	Y28	Z28	X29	Y29	Z29	X30	Y30	Z30	X31	Y31	Z31	X32	Y32	Z32	X33	Y33	Z33	X34	Y34	Z34	X35	Y35	Z35	X36	Y36	Z36	X37	Y37	Z37	X38	Y38	Z38	X39	Y39	Z39	X40	Y40	Z40	X41	Y41	Z41	X42	Y42	Z42	X43	Y43	Z43	X44	Y44	Z44	X45	Y45	Z45	X46	Y46	Z46	X47	Y47	Z47	X48	Y48	Z48	X49	Y49	Z49	X50	Y50	Z50	X51	Y51	Z51	X52	Y52	Z52	X53	Y53	Z53	X54	Y54	Z54	X55	Y55	Z55	X56	Y56	Z56	X57	Y57	Z57	X58	Y58	Z58	X59	Y59	Z59	X60	Y60	Z60	X61	Y61	Z61	X62	Y62	Z62	X63	Y63	Z63	X64	Y64	Z64	X65	Y65	Z65	X66	Y66	Z66	X67	Y67	Z67	X68	Y68	Z68

740	3.7	904.92	39.132	-82.905	9	2014	4	712.76	1616.4	-110.83	815.82	815.24	-327.07	724.65	1081.2	-326.86	802.51	66.184	41.433	773.54	1422.2	-211.7	764.82	73.481	113.51	848.67	74.718	80.395	757.76	1218	-287.2	814.32	330.58	104.57	888.61	807.49	-310.03	608.52	125	25.767	755.02	944.16	-333.05	775.39	249.78	31.541	832.05	327.85	24.066	695.8	940.85	240.21	814.78	23.985	-139.34	715.91	821.31	209.08	699.34	141.41	9.4895	682.07	1483.6	-44.599	793.33	1038.2	-192.46	879.71	548.66	110.34	777.04	297.14	-135.07	596.93	1043.2	-77.798	760.32	516.8	-154.1	724.86	69.34	-28.685	632.6	1105	160.28	768.74	580.27	-164.54	768.39	1038.2	118.34	591.39	1043.2	-8.7321	713.95	940.38	-148.77	687.51	1040.7	-40.163	780.86	1038.2	-37.061	780.86	1038.2	-37.061	696.99	940.41	62.572	594.16	1043.2	-43.265	860.58	1036	-30.663	783	1118.1	-36.9	774.46	1038.2	42.682	637.16	34.314	-61.15	665.98	1100.3	239.42	889.97	1654	-83.505	866.87	591.58	112.15	784.32	803.21	237.59	610.32	1227.6	-39.671	716	1612.5	25.938	856.61	29.326	-60.197	863.87	515.94	-16.913	871.79	532.3	46.713	701.43	59.011	-110.99	792.9	851.33	190.21	669.94	149.94	86.308	746.9	1258.1	199.5	891.45	1653.4	-8.5047	791.1	1434.6	113.24	743.61	497.28	-27.742	751.96	507.04	-90.923	764.3	672.75	-186.78	794.47	764.98	134.92	759.12	763.4	-206.42	823.02	699.95	-220.58	797.86	389.77	-66.169	778.87	298.86	-62.998	762.52	205.78	-62.748	834.02	679.59	130.23	892.77	413.68	22.57	893.11	707.7	95.131
741	3.705	905.02	38.92	-82.959	9	2014	4	716.92	1616.6	-111.06	824.52	816.18	-327.04	730.71	1081.2	-327.27	819.67	65.325	41.34	777.68	1422.5	-211.9	781.48	71.563	113.22	865.68	74.665	80.436	762.99	1218.2	-287.5	824.96	329.76	104.24	897.39	809.19	-310.04	624.17	119.44	25.04	762.34	944.46	-333.13	788.21	248.08	31.11	842.82	327.04	23.868	699.13	941.02	239.84	814.81	23.955	-139.43	718.91	821.42	208.65	714.71	137.93	9.0489	686.21	1483.7	-44.836	798.01	1038.5	-193.02	885.99	549.6	110.09	777.94	296.9	-135.25	601.24	1043.3	-77.828	762.04	516.66	-154.3	724.89	69.31	-28.644	636.4	1105.3	159.93	770.93	580.17	-164.71	773.6	1038.4	117.86	595.82	1043.3	-8.7436	718.8	940.64	-149.25	692.17	1040.9	-40.432	785.8	1038.4	-37.577	785.8	1038.4	-37.577	702.21	940.51	62.15	598.53	1043.3	-43.286	865.53	1036.4	-31.318	787.86	1118.4	-37.368	779.54	1038.4	42.177	637.18	34.305	-61.081	669.75	1100.5	239.06	894.14	1654.1	-83.693	872.84	592.54	111.98	787.19	803.06	237.25	614.6	1227.6	-39.883	720.13	1612.7	25.707	856.61	29.492	-60.208	870.34	516.59	-17.077	878.16	533.1	46.509	701.46	59.02	-110.95	796.02	851.21	189.9	684.86	145.72	85.78	750.84	1258.2	199.24	895.6	1653.6	-8.6925	795.24	1434.8	113.01	745.21	497.22	-27.906	753.62	506.94	-91.103	766.99	672.64	-186.96	799.4	765.53	135.33	762.32	763.32	-206.62	825.54	700.16	-220.93	799.14	389.42	-66.36	779.79	298.59	-63.099	763.07	205.72	-62.75	839.53	680.34	130.1	903.32	415.17	21.614	898.45	708.75	94.834
742	3.71	905.12	38.712	-83.014	9	2014	4	721.09	1616.7	-111.28	833.18	817.11	-326.98	736.73	1081.2	-327.67	836.94	64.495	41.247	781.83	1422.7	-212.09	798.28	69.648	112.94	882.78	74.611	80.476	768.19	1218.5	-287.79	835.58	328.89	103.93	906.12	810.92	-310.03	640.05	113.87	24.323	769.62	944.75	-333.19	801.07	246.35	30.703	853.43	326.12	23.811	702.51	941.16	239.5	814.83	23.924	-139.52	721.95	821.51	208.27	730.26	134.43	8.6154	690.36	1483.8	-45.06	802.68	1038.9	-193.56	892.09	550.44	109.86	778.86	296.66	-135.42	605.55	1043.4	-77.843	763.77	516.52	-154.49	724.93	69.272	-28.598	640.24	1105.6	159.64	773.14	580.07	-164.86	778.83	1038.5	117.39	600.25	1043.3	-8.7429	723.65	940.88	-149.72	696.83	1041	-40.691	790.76	1038.7	-38.089	790.76	1038.7	-38.089	707.43	940.59	61.728	602.9	1043.3	-43.293	870.5	1036.7	-31.975	792.72	1118.7	-37.826	784.64	1038.6	41.677	637.22	34.293	-61.003	673.56	1100.7	238.73	898.31	1654.2	-83.878	878.66	593.4	111.83	790.12	802.88	236.91	618.9	1227.7	-40.077	724.28	1612.8	25.482	856.62	29.639	-60.217	876.6	517.14	-17.225	884.35	533.79	46.319	701.5	59.031	-110.91	799.17	851.08	189.6	699.95	141.47	85.274	754.8	1258.4	199.01	899.75	1653.7	-8.8756	799.4	1434.9	112.8	746.77	497.14	-28.049	755.27	506.83	-91.269	769.69	672.52	-187.15	804.3	766.02	135.77	765.54	763.23	-206.81	828.07	700.32	-221.3	800.42	389.08	-66.539	780.72	298.32	-63.191	763.61	205.7	-62.703	844.96	681	129.97	913.65	416.54	20.747	903.69	709.67	94.504
743	3.715	905.22	38.507	-83.07	9	2014	4	725.28	1616.8	-111.49	841.78	818.04	-326.87	742.72	1081.3	-328.07	854.3	63.709	41.156	786	1422.9	-212.27	815.2	67.753	112.65	899.98	74.567	80.516	773.36	1218.7	-288.09	846.18	327.97	103.63	914.78	812.65	-309.99	656.15	108.31	23.618	776.86	945.03	-333.22	813.96	244.6	30.328	863.9	325.11	23.882	705.93	941.26	239.2	814.86	23.891	-139.61	725.04	821.56	207.93	745.98	130.95	8.1917	694.54	1483.9	-45.27	807.33	1039.2	-194.09	898.03	551.18	109.64	779.78	296.41	-135.58	609.87	1043.4	-77.842	765.51	516.37	-154.67	724.98	69.227	-28.545	644.11	1105.9	159.38	775.36	579.97	-165	784.06	1038.6	116.92	604.7	1043.3	-8.7292	728.48	941.1	-150.17	701.49	1041.1	-40.936	795.7	1038.9	-38.586	795.7	1038.9	-38.586	712.66	940.63	61.316	607.28	1043.4	-43.286	875.45	1037	-32.623	797.58	1118.9	-38.267	789.73	1038.7	41.19	637.25	34.28	-60.919	677.4	1100.8	238.43	902.5	1654.3	-84.059	884.34	594.18	111.72	793.11	802.68	236.58	623.21	1227.7	-40.256	728.43	1612.9	25.264	856.64	29.766	-60.226	882.65	517.56	-17.359	890.34	534.37	46.139	701.54	59.045	-110.86	802.36	850.93	189.31	715.21	137.22	84.792	758.78	1258.5	198.8	903.92	1653.8	-9.0533	803.59	1434.9	112.6	748.3	497.05	-28.176	756.91	506.71	-91.424	772.4	672.39	-187.33	809.2	766.46	136.23	768.78	763.15	-206.99	830.59	700.45	-221.69	801.69	388.73	-66.707	781.66	298.06	-63.273	764.15	205.71	-62.62	850.3	681.58	129.84	923.7	417.78	19.99	908.83	710.47	94.141
